<?xml version="1.0" standalone="no"?>
<!DOCTYPE svg PUBLIC "-//W3C//DTD SVG 20010904//EN"
 "http://www.w3.org/TR/2001/REC-SVG-20010904/DTD/svg10.dtd">
<svg version="1.0" xmlns="http://www.w3.org/2000/svg"
 width="800.000000pt" height="800.000000pt" viewBox="0 0 800.000000 800.000000"
 preserveAspectRatio="xMidYMid meet">

<g transform="translate(0.000000,800.000000) scale(0.100000,-0.100000)"
fill="#000000" stroke="none">
<path d="M3660 7533 c-570 -40 -1029 -178 -1403 -422 -507 -332 -829 -797
-981 -1417 -29 -116 -62 -311 -55 -318 8 -8 1423 -66 1430 -58 3 4 12 41 18
82 16 96 70 259 115 347 166 327 488 560 872 629 120 21 398 24 519 5 375 -59
628 -224 760 -496 75 -153 90 -229 89 -445 0 -172 -2 -191 -27 -273 -15 -48
-41 -117 -57 -154 -100 -221 -344 -472 -734 -757 -77 -55 -200 -147 -275 -203
-509 -381 -798 -799 -900 -1298 -21 -104 -41 -274 -34 -287 2 -5 305 -8 673
-8 l668 0 7 53 c35 289 144 504 370 732 129 129 189 177 545 436 421 305 555
417 746 621 201 215 339 468 405 744 66 276 66 642 0 941 -180 825 -898 1386
-1941 1517 -245 31 -604 44 -810 29z"/>
<path d="M2950 990 l0 -680 730 0 730 0 0 680 0 680 -730 0 -730 0 0 -680z"/>
</g>
</svg>
